<?xml version="1.0" encoding="UTF-8" standalone="no"?>
<!-- Created with Inkscape (http://www.inkscape.org/) -->

<svg
   width="44.450008mm"
   height="22.225mm"
   viewBox="0 0 44.450008 22.225001"
   version="1.1"
   id="svg5"
   xml:space="preserve"
   inkscape:version="1.2.2 (b0a8486541, 2022-12-01)"
   sodipodi:docname="characters.svg"
   inkscape:export-filename="png/characters.png"
   inkscape:export-xdpi="1170.2858"
   inkscape:export-ydpi="1170.2858"
   xmlns:inkscape="http://www.inkscape.org/namespaces/inkscape"
   xmlns:sodipodi="http://sodipodi.sourceforge.net/DTD/sodipodi-0.dtd"
   xmlns="http://www.w3.org/2000/svg"
   xmlns:svg="http://www.w3.org/2000/svg"><sodipodi:namedview
     id="namedview7"
     pagecolor="#505050"
     bordercolor="#ffffff"
     borderopacity="1"
     inkscape:showpageshadow="0"
     inkscape:pageopacity="0"
     inkscape:pagecheckerboard="1"
     inkscape:deskcolor="#d1d1d1"
     inkscape:document-units="mm"
     showgrid="false"
     inkscape:zoom="4.2743387"
     inkscape:cx="99.781517"
     inkscape:cy="34.391285"
     inkscape:window-width="1634"
     inkscape:window-height="749"
     inkscape:window-x="239"
     inkscape:window-y="285"
     inkscape:window-maximized="0"
     inkscape:current-layer="layer1" /><defs
     id="defs2"><inkscape:path-effect
       effect="mirror_symmetry"
       start_point="146.75133,37.116594"
       end_point="146.75133,58.904495"
       center_point="146.75133,48.010544"
       id="path-effect25946"
       is_visible="true"
       lpeversion="1.2"
       lpesatellites=""
       mode="free"
       discard_orig_path="false"
       fuse_paths="true"
       oposite_fuse="false"
       split_items="false"
       split_open="false"
       link_styles="false" /><inkscape:path-effect
       effect="mirror_symmetry"
       start_point="186.34261,36.287852"
       end_point="186.34261,237.6194"
       center_point="186.34261,136.95363"
       id="path-effect13403"
       is_visible="true"
       lpeversion="1.2"
       lpesatellites=""
       mode="free"
       discard_orig_path="false"
       fuse_paths="false"
       oposite_fuse="false"
       split_items="false"
       split_open="false"
       link_styles="false" /><inkscape:path-effect
       effect="mirror_symmetry"
       start_point="186.34261,89.114838"
       end_point="186.34261,117.02194"
       center_point="186.34261,103.06839"
       id="path-effect10965"
       is_visible="true"
       lpeversion="1.2"
       lpesatellites=""
       mode="free"
       discard_orig_path="false"
       fuse_paths="false"
       oposite_fuse="false"
       split_items="false"
       split_open="false"
       link_styles="false" /><inkscape:path-effect
       effect="mirror_symmetry"
       start_point="186.34261,28.281351"
       end_point="186.34261,42.862913"
       center_point="186.34261,35.572132"
       id="path-effect4086"
       is_visible="true"
       lpeversion="1.2"
       lpesatellites=""
       mode="free"
       discard_orig_path="false"
       fuse_paths="false"
       oposite_fuse="false"
       split_items="false"
       split_open="false"
       link_styles="false" /><inkscape:path-effect
       effect="mirror_symmetry"
       start_point="186.34261,-17.794707"
       end_point="186.34261,88.938971"
       center_point="186.34261,35.572132"
       id="path-effect3954"
       is_visible="true"
       lpeversion="1.2"
       lpesatellites=""
       mode="free"
       discard_orig_path="false"
       fuse_paths="false"
       oposite_fuse="false"
       split_items="false"
       split_open="false"
       link_styles="false" /><inkscape:path-effect
       effect="mirror_symmetry"
       start_point="186.34261,30.148176"
       end_point="186.34261,40.996088"
       center_point="186.34261,35.572132"
       id="path-effect3944"
       is_visible="true"
       lpeversion="1.2"
       lpesatellites=""
       mode="free"
       discard_orig_path="false"
       fuse_paths="false"
       oposite_fuse="false"
       split_items="false"
       split_open="false"
       link_styles="false" /><inkscape:path-effect
       effect="mirror_symmetry"
       start_point="186.34261,32.843771"
       end_point="186.34261,38.300493"
       center_point="186.34261,35.572132"
       id="path-effect3942"
       is_visible="true"
       lpeversion="1.2"
       lpesatellites=""
       mode="free"
       discard_orig_path="false"
       fuse_paths="false"
       oposite_fuse="false"
       split_items="false"
       split_open="false"
       link_styles="false" /><inkscape:path-effect
       effect="mirror_symmetry"
       start_point="186.34261,29.504514"
       end_point="186.34261,41.63975"
       center_point="186.34261,35.572132"
       id="path-effect3940"
       is_visible="true"
       lpeversion="1.2"
       lpesatellites=""
       mode="free"
       discard_orig_path="false"
       fuse_paths="false"
       oposite_fuse="false"
       split_items="false"
       split_open="false"
       link_styles="false" /><mask
       maskUnits="userSpaceOnUse"
       id="mask1688"><rect
         style="opacity:1;fill:#ffffff;stroke:none;stroke-width:9.99995;stroke-linecap:round;stroke-linejoin:round;paint-order:markers fill stroke"
         id="rect1690"
         width="128.05833"
         height="202.78864"
         x="122.31344"
         y="35.572132" /></mask><inkscape:path-effect
       effect="mirror_symmetry"
       start_point="103.2985,190.50754"
       end_point="103.2985,195.60696"
       center_point="103.2985,193.05725"
       id="path-effect43974"
       is_visible="true"
       lpeversion="1.2"
       lpesatellites=""
       mode="free"
       discard_orig_path="false"
       fuse_paths="false"
       oposite_fuse="false"
       split_items="false"
       split_open="false"
       link_styles="false" /><inkscape:path-effect
       effect="mirror_symmetry"
       start_point="103.29875,185.53467"
       end_point="103.29875,189.72622"
       center_point="103.29875,187.63045"
       id="path-effect40122"
       is_visible="true"
       lpeversion="1.2"
       lpesatellites=""
       mode="free"
       discard_orig_path="false"
       fuse_paths="false"
       oposite_fuse="false"
       split_items="false"
       split_open="false"
       link_styles="false" /><inkscape:path-effect
       effect="mirror_symmetry"
       start_point="103.29875,185.86881"
       end_point="103.29875,189.3921"
       center_point="103.29875,187.63045"
       id="path-effect46629"
       is_visible="true"
       lpeversion="1.2"
       lpesatellites=""
       mode="free"
       discard_orig_path="false"
       fuse_paths="false"
       oposite_fuse="false"
       split_items="false"
       split_open="false"
       link_styles="false" /><inkscape:path-effect
       effect="mirror_symmetry"
       start_point="103.2985,190.50754"
       end_point="103.2985,195.60696"
       center_point="103.2985,193.05725"
       id="path-effect43974-6"
       is_visible="true"
       lpeversion="1.2"
       lpesatellites=""
       mode="free"
       discard_orig_path="false"
       fuse_paths="false"
       oposite_fuse="false"
       split_items="false"
       split_open="false"
       link_styles="false" /><inkscape:path-effect
       effect="mirror_symmetry"
       start_point="103.29875,185.53467"
       end_point="103.29875,189.72622"
       center_point="103.29875,187.63045"
       id="path-effect40122-7"
       is_visible="true"
       lpeversion="1.2"
       lpesatellites=""
       mode="free"
       discard_orig_path="false"
       fuse_paths="false"
       oposite_fuse="false"
       split_items="false"
       split_open="false"
       link_styles="false" /><inkscape:path-effect
       effect="mirror_symmetry"
       start_point="103.29875,185.86881"
       end_point="103.29875,189.3921"
       center_point="103.29875,187.63045"
       id="path-effect46629-5"
       is_visible="true"
       lpeversion="1.2"
       lpesatellites=""
       mode="free"
       discard_orig_path="false"
       fuse_paths="false"
       oposite_fuse="false"
       split_items="false"
       split_open="false"
       link_styles="false" /><inkscape:path-effect
       effect="mirror_symmetry"
       start_point="103.30064,182.96889"
       end_point="103.30064,183.62781"
       center_point="103.30064,183.29835"
       id="path-effect30187"
       is_visible="true"
       lpeversion="1.2"
       lpesatellites=""
       mode="free"
       discard_orig_path="false"
       fuse_paths="false"
       oposite_fuse="false"
       split_items="false"
       split_open="false"
       link_styles="false" /><inkscape:path-effect
       effect="mirror_symmetry"
       start_point="103.30064,183.05282"
       end_point="103.30064,183.54388"
       center_point="103.30064,183.29835"
       id="path-effect31745"
       is_visible="true"
       lpeversion="1.2"
       lpesatellites=""
       mode="free"
       discard_orig_path="false"
       fuse_paths="false"
       oposite_fuse="false"
       split_items="false"
       split_open="false"
       link_styles="false" /><inkscape:path-effect
       effect="mirror_symmetry"
       start_point="103.30064,179.88657"
       end_point="103.30064,186.71013"
       center_point="103.30064,183.29835"
       id="path-effect36164"
       is_visible="true"
       lpeversion="1.2"
       lpesatellites=""
       mode="free"
       discard_orig_path="false"
       fuse_paths="false"
       oposite_fuse="false"
       split_items="false"
       split_open="false"
       link_styles="false" /><inkscape:path-effect
       effect="mirror_symmetry"
       start_point="103.29875,185.86881"
       end_point="103.29875,189.3921"
       center_point="103.29875,187.63045"
       id="path-effect46629-56"
       is_visible="true"
       lpeversion="1.2"
       lpesatellites=""
       mode="free"
       discard_orig_path="false"
       fuse_paths="false"
       oposite_fuse="false"
       split_items="false"
       split_open="false"
       link_styles="false" /><inkscape:path-effect
       effect="mirror_symmetry"
       start_point="103.29875,185.53467"
       end_point="103.29875,189.72622"
       center_point="103.29875,187.63045"
       id="path-effect40122-2"
       is_visible="true"
       lpeversion="1.2"
       lpesatellites=""
       mode="free"
       discard_orig_path="false"
       fuse_paths="false"
       oposite_fuse="false"
       split_items="false"
       split_open="false"
       link_styles="false" /><inkscape:path-effect
       effect="mirror_symmetry"
       start_point="103.2985,190.50754"
       end_point="103.2985,195.60696"
       center_point="103.2985,193.05725"
       id="path-effect43974-9"
       is_visible="true"
       lpeversion="1.2"
       lpesatellites=""
       mode="free"
       discard_orig_path="false"
       fuse_paths="false"
       oposite_fuse="false"
       split_items="false"
       split_open="false"
       link_styles="false" /><inkscape:path-effect
       effect="mirror_symmetry"
       start_point="103.29875,185.86881"
       end_point="103.29875,189.3921"
       center_point="103.29875,187.63045"
       id="path-effect46629-56-2"
       is_visible="true"
       lpeversion="1.2"
       lpesatellites=""
       mode="free"
       discard_orig_path="false"
       fuse_paths="false"
       oposite_fuse="false"
       split_items="false"
       split_open="false"
       link_styles="false" /><inkscape:path-effect
       effect="mirror_symmetry"
       start_point="103.29875,185.86881"
       end_point="103.29875,189.3921"
       center_point="103.29875,187.63045"
       id="path-effect46629-56-0"
       is_visible="true"
       lpeversion="1.2"
       lpesatellites=""
       mode="free"
       discard_orig_path="false"
       fuse_paths="false"
       oposite_fuse="false"
       split_items="false"
       split_open="false"
       link_styles="false" /></defs><g
     inkscape:label="Camada 1"
     inkscape:groupmode="layer"
     id="layer1"
     transform="translate(-121.91702,-37.116592)"><g
       id="g25944"
       transform="translate(8.503199,0.2185481)"
       inkscape:path-effect="#path-effect25946"
       class="UnoptimicedTransforms"><path
         id="path12983"
         style="fill:#3a3b40;fill-opacity:1;stroke-width:2.99999;stroke-linecap:round;stroke-linejoin:round;paint-order:markers fill stroke"
         d="m 143.28161,51.557677 c -1.22441,1.224413 -2.55711,2.390763 -3.38503,1.562842 -0.82792,-0.827921 0.33843,-2.160618 1.56284,-3.385032 1.22442,-1.224414 2.10672,-1.813391 2.87115,-1.048961 0.76443,0.764428 0.17546,1.646737 -1.04896,2.871151 z m 6.93944,0 c 1.22441,1.224413 2.55711,2.390763 3.38503,1.562842 0.82792,-0.827921 -0.33843,-2.160618 -1.56284,-3.385032 -1.22442,-1.224414 -2.10672,-1.813391 -2.87115,-1.048961 -0.76443,0.764428 -0.17546,1.646737 1.04896,2.871151 z"
         sodipodi:nodetypes="szszs"
         inkscape:transform-center-x="12.738156"
         inkscape:transform-center-y="12.972813"
         inkscape:original-d="m 143.28161,51.557677 c -1.22441,1.224413 -2.55711,2.390763 -3.38503,1.562842 -0.82792,-0.827921 0.33843,-2.160618 1.56284,-3.385032 1.22442,-1.224414 2.10672,-1.813391 2.87115,-1.048961 0.76443,0.764428 0.17546,1.646737 -1.04896,2.871151 z" /><path
         style="fill:#3a3b40;fill-opacity:1;stroke:none;stroke-width:2.99999;stroke-linecap:round;stroke-linejoin:round;stroke-dasharray:none;paint-order:markers fill stroke"
         d="m 144.51238,58.904495 c -2.23896,0 -1.48643,-4.474621 -1.48643,-5.821381 0,-1.346759 1.18467,-1.658109 2.21362,-1.064048 1.02895,0.594062 0.12839,2.472122 0.12839,3.349688 0,0.877566 1.38337,3.535741 -0.85558,3.535741 z m 4.4779,0 c 2.23896,0 1.48643,-4.474621 1.48643,-5.821381 0,-1.346759 -1.18467,-1.658109 -2.21362,-1.064048 -1.02895,0.594062 -0.12839,2.472122 -0.12839,3.349688 0,0.877566 -1.38337,3.535741 0.85558,3.535741 z"
         id="path12985"
         sodipodi:nodetypes="zzzzz"
         inkscape:original-d="m 144.51238,58.904495 c -2.23896,0 -1.48643,-4.474621 -1.48643,-5.821381 0,-1.346759 1.18467,-1.658109 2.21362,-1.064048 1.02895,0.594062 0.12839,2.472122 0.12839,3.349688 0,0.877566 1.38337,3.535741 -0.85558,3.535741 z" /><g
         id="g12991"
         style="stroke-width:9.24049"
         transform="matrix(0.10821901,0,0,0.10821901,126.58552,33.189559)"><path
           style="opacity:1;fill:#ffffff;fill-opacity:1;stroke:none;stroke-width:27.7215;stroke-linecap:round;stroke-linejoin:round;stroke-dasharray:none;paint-order:markers fill stroke"
           d="m 186.34831,125.52211 c -16.5871,0 -31.7678,6.5433 -35.40995,39.05564 -3.64206,32.51234 16.07675,41.94329 35.40995,41.94329 19.3333,0 39.05211,-9.43095 35.40996,-41.94329 -3.64206,-32.51234 -18.82276,-39.05564 -35.40996,-39.05564 z"
           id="path12987"
           sodipodi:nodetypes="czcc"
           inkscape:original-d="m 186.34261,206.51941 c -19.33325,0 -39.05328,-9.42398 -35.41119,-41.93633 3.64209,-32.51235 18.82403,-39.05854 35.41119,-39.05854 z" /><path
           style="opacity:1;fill:#2e2f33;fill-opacity:1;stroke:none;stroke-width:27.7215;stroke-linecap:round;stroke-linejoin:round;stroke-dasharray:none;stroke-opacity:1;paint-order:markers fill stroke"
           d="m 186.34831,125.52211 c -18.53075,0 -27.99499,2.69395 -33.64122,28.53372 8.37468,4.83513 24.2024,5.5768 33.64122,5.5768 9.43892,0 25.26664,-0.74167 33.64132,-5.5768 -5.64633,-25.83977 -15.11047,-28.53372 -33.64132,-28.53372 z"
           id="path12989"
           sodipodi:nodetypes="cccc"
           inkscape:original-d="m 186.34261,159.63607 c -9.43886,0 -25.26572,-0.74319 -33.64042,-5.57832 5.64629,-25.83978 15.10959,-28.53321 33.64042,-28.53321 z" /></g><path
         id="path12993"
         style="fill:#2e2f33;fill-opacity:1;stroke-width:9.99997;stroke-linecap:round;stroke-linejoin:round;paint-order:markers fill stroke"
         d="m 142.68831,37.116594 c -0.74909,0 -1.82342,0.82509 -1.82342,2.339411 0,1.514321 1.39343,2.085591 2.07722,2.085591 0.68379,0 1.5126,-0.16769 1.5126,-1.809733 0,-1.642043 -1.01731,-2.615269 -1.7664,-2.615269 z m 8.12604,0 c 0.74909,0 1.82342,0.82509 1.82342,2.339411 0,1.514321 -1.39343,2.085591 -2.07722,2.085591 -0.68379,0 -1.5126,-0.16769 -1.5126,-1.809733 0,-1.642043 1.01731,-2.615269 1.7664,-2.615269 z"
         sodipodi:nodetypes="zzzzz"
         inkscape:original-d="m 142.68831,37.116594 c -0.74909,0 -1.82342,0.82509 -1.82342,2.339411 0,1.514321 1.39343,2.085591 2.07722,2.085591 0.68379,0 1.5126,-0.16769 1.5126,-1.809733 0,-1.642043 -1.01731,-2.615269 -1.7664,-2.615269 z" /><path
         style="fill:#88b9a4;fill-opacity:1;stroke:none;stroke-width:0.399999;stroke-linecap:round;stroke-linejoin:round;stroke-dasharray:none;stroke-opacity:1;paint-order:markers fill stroke"
         d="m 143.0382,50.203672 c 0.20657,-0.770916 -0.0578,-1.049782 -0.305,-1.558101 -0.24729,-0.508319 -0.16054,-0.904283 0.95891,-0.904283 1.11945,0 -0.16737,5.47547 -0.66614,5.341826 -0.49877,-0.133644 -0.19433,-2.108526 0.0122,-2.879442 z m 7.42626,0 c -0.20657,-0.770916 0.0578,-1.049782 0.305,-1.558101 0.24729,-0.508319 0.16054,-0.904283 -0.95891,-0.904283 -1.11945,0 0.16737,5.47547 0.66614,5.341826 0.49877,-0.133644 0.19433,-2.108526 -0.0122,-2.879442 z"
         id="rect46624-9"
         sodipodi:nodetypes="zzzzz"
         inkscape:original-d="m 143.0382,50.203672 c 0.20657,-0.770916 -0.0578,-1.049782 -0.305,-1.558101 -0.24729,-0.508319 -0.16054,-0.904283 0.95891,-0.904283 1.11945,0 -0.16737,5.47547 -0.66614,5.341826 -0.49877,-0.133644 -0.19433,-2.108526 0.0122,-2.879442 z" /><path
         style="fill:#ffffff;stroke-width:9.99997;stroke-linecap:round;stroke-linejoin:round;paint-order:markers fill stroke"
         d="m 146.75195,38.394531 c -0.80794,0 -2.5255,-0.0057 -4.05859,1.527344 -1.53309,1.533088 -2.71975,4.667546 -1.65039,6.626953 1.06937,1.959407 4.85715,2.119141 5.70898,2.119141 0.85183,0 4.63766,-0.159734 5.70703,-2.119141 1.06936,-1.959407 -0.1173,-5.093865 -1.65039,-6.626953 -1.53309,-1.533088 -3.2487,-1.527344 -4.05664,-1.527344 z"
         id="path12995"
         sodipodi:nodetypes="cczzc"
         inkscape:original-d="m 146.75133,38.394594 v 10.272612 c -0.85183,0 -4.63886,-0.158205 -5.70823,-2.117612 -1.06936,-1.959407 0.11779,-5.093912 1.65088,-6.627 1.53309,-1.533088 3.24941,-1.528 4.05735,-1.528 z" /><path
         style="fill:#3a3b40;fill-opacity:1;stroke:none;stroke-width:2.99999;stroke-linecap:round;stroke-linejoin:round;stroke-dasharray:none;stroke-opacity:1;paint-order:markers fill stroke"
         d="m 142.7505,42.309644 c -0.67341,0.673417 -1.00659,1.922128 -0.5502,2.737702 0.45639,0.815575 1.5889,0.962627 2.51926,0.03227 0.93037,-0.930362 0.94226,-2.47473 0.28727,-3.12972 -0.65499,-0.65499 -1.58291,-0.313663 -2.25633,0.359753 z m 8.00166,0 c 0.67341,0.673417 1.00659,1.922128 0.5502,2.737702 -0.45639,0.815575 -1.5889,0.962627 -2.51926,0.03227 -0.93037,-0.930362 -0.94226,-2.47473 -0.28727,-3.12972 0.65499,-0.65499 1.58291,-0.313663 2.25633,0.359753 z"
         id="path12997"
         sodipodi:nodetypes="zzzzz"
         inkscape:original-d="m 142.7505,42.309644 c -0.67341,0.673417 -1.00659,1.922128 -0.5502,2.737702 0.45639,0.815575 1.5889,0.962627 2.51926,0.03227 0.93037,-0.930362 0.94226,-2.47473 0.28727,-3.12972 -0.65499,-0.65499 -1.58291,-0.313663 -2.25633,0.359753 z" /><ellipse
         style="fill:#151719;fill-opacity:1;stroke:none;stroke-width:3.16988;stroke-linecap:round;stroke-linejoin:round;stroke-dasharray:none;stroke-opacity:1;paint-order:markers fill stroke"
         id="path18596"
         cx="144.31058"
         cy="43.831345"
         rx="0.42057297"
         ry="0.5869751"
         d="m 144.73115,43.831345 c 0,0.324177 -0.1883,0.586975 -0.42057,0.586975 -0.23228,0 -0.42058,-0.262798 -0.42058,-0.586975 0,-0.324178 0.1883,-0.586975 0.42058,-0.586975 0.23227,0 0.42057,0.262797 0.42057,0.586975 z m 4.04036,0 c 0,0.324177 0.1883,0.586975 0.42057,0.586975 0.23228,0 0.42058,-0.262798 0.42058,-0.586975 0,-0.324178 -0.1883,-0.586975 -0.42058,-0.586975 -0.23227,0 -0.42057,0.262797 -0.42057,0.586975 z" /><path
         style="fill:#151719;fill-opacity:1;stroke:none;stroke-width:9.99997;stroke-linecap:round;stroke-linejoin:round;paint-order:markers fill stroke"
         d="m 146.75195,44.322266 c -0.25091,0 -0.74609,0.06263 -0.74609,0.447265 0,0.384639 0.4445,0.611328 0.74609,0.611328 0.30159,0 0.74414,-0.226689 0.74414,-0.611328 0,-0.384638 -0.49323,-0.447265 -0.74414,-0.447265 z"
         id="path13001"
         sodipodi:nodetypes="cczc"
         inkscape:original-d="m 146.75133,44.323115 v 1.056946 c -0.30159,0 -0.74542,-0.225621 -0.74542,-0.61026 0,-0.384638 0.49451,-0.446686 0.74542,-0.446686 z" /><path
         style="fill:#ffffff;stroke:#16181a;stroke-width:0.4;stroke-linecap:round;stroke-linejoin:round;stroke-dasharray:none;stroke-opacity:1;paint-order:markers fill stroke"
         d="m 145.91152,46.000726 c 0.20824,0.22972 0.47207,0.407869 0.83981,0.407869 0.36774,0 0.63157,-0.178149 0.83981,-0.407869"
         id="path13003"
         sodipodi:nodetypes="cc"
         inkscape:original-d="m 145.91152,46.000726 c 0.20824,0.22972 0.47207,0.407869 0.83981,0.407869" /></g><g
       id="g23100"
       transform="matrix(1.0000068,0,0,1.0000068,219.19445,-57.919807)"
       style="stroke-width:0.999993"><path
         id="path39270-9"
         style="fill:#e59f5c;fill-opacity:1;stroke:none;stroke-width:0.299998;stroke-linecap:round;stroke-linejoin:round;stroke-dasharray:none;stroke-opacity:1;paint-order:markers fill stroke"
         d="m 101.15266,190.71297 c -0.55225,4e-5 -1.199625,0.44771 -1.199655,0.99994 l -1e-5,2.37037 c -5e-6,1.19643 0.747805,1.7291 1.300045,1.72911 0.55224,0 0.89957,-0.5004 0.89957,-1.52911 0,-0.47129 -10e-6,-1.53771 -10e-6,-2.57037 -4e-5,-0.55223 -0.44769,-0.99991 -0.99994,-0.99994 z m 4.29168,0 c 0.55225,4e-5 1.19963,0.44771 1.19966,0.99994 l 10e-6,2.37037 c 0,1.19643 -0.74781,1.7291 -1.30005,1.72911 -0.55224,0 -0.89957,-0.5004 -0.89957,-1.52911 0,-0.47129 1e-5,-1.53771 1e-5,-2.57037 4e-5,-0.55223 0.44769,-0.99991 0.99994,-0.99994 z"
         sodipodi:nodetypes="ccszscc"
         inkscape:transform-center-y="1.5497215"
         inkscape:transform-center-x="7.34534e-05"
         transform="matrix(0.99999851,0,0,1,-189.6813,-78.770336)"
         inkscape:original-d="m 101.15266,190.71297 c -0.55225,4e-5 -1.199625,0.44771 -1.199655,0.99994 l -1e-5,2.37037 c -5e-6,1.19643 0.747805,1.7291 1.300045,1.72911 0.55224,0 0.89957,-0.5004 0.89957,-1.52911 0,-0.47129 -10e-6,-1.53771 -10e-6,-2.57037 -4e-5,-0.55223 -0.44769,-0.99991 -0.99994,-0.99994 z"
         inkscape:path-effect="#path-effect43974-9"
         class="UnoptimicedTransforms" /><path
         id="path39270"
         style="fill:#e59f5c;fill-opacity:1;stroke:none;stroke-width:0.299998;stroke-linecap:round;stroke-linejoin:round;stroke-dasharray:none;stroke-opacity:1;paint-order:markers fill stroke"
         d="m 101.08352,187.66357 c -0.39051,-0.39047 -1.02361,-0.39047 -1.414127,0 l -2.191712,2.19171 c -0.39047,0.39052 -0.390473,1.02362 10e-7,1.41413 0.390514,0.39048 1.023615,0.39048 1.414129,0 l 2.191709,-2.19171 c 0.39047,-0.39051 0.39047,-1.02361 0,-1.41413 z m 4.43046,0 c 0.39051,-0.39047 1.02361,-0.39047 1.41413,0 l 2.19171,2.19171 c 0.39047,0.39052 0.39047,1.02362 0,1.41413 -0.39052,0.39048 -1.02362,0.39048 -1.41413,0 l -2.19171,-2.19171 c -0.39047,-0.39051 -0.39047,-1.02361 0,-1.41413 z"
         sodipodi:nodetypes="ccccccc"
         inkscape:transform-center-y="1.0958179"
         inkscape:transform-center-x="1.095819"
         transform="translate(-189.68137,-78.470643)"
         inkscape:original-d="m 101.08352,187.66357 c -0.39051,-0.39047 -1.02361,-0.39047 -1.414127,0 l -2.191712,2.19171 c -0.39047,0.39052 -0.390473,1.02362 10e-7,1.41413 0.390514,0.39048 1.023615,0.39048 1.414129,0 0,0 1.461509,-1.46151 2.191709,-2.19171 0.39047,-0.39051 0.39047,-1.02361 0,-1.41413 z"
         inkscape:path-effect="#path-effect40122-2"
         class="UnoptimicedTransforms" /><path
         id="path36298"
         style="fill:#f9b16a;fill-opacity:1;stroke-width:0.299998;stroke-linecap:round;stroke-linejoin:round;paint-order:markers fill stroke"
         d="m -82.88288,111.88481 c 0,1.49216 -1.567,2.7018 -3.5,2.7018 -1.933,0 -3.5,-1.20964 -3.5,-2.7018 1e-5,-1.49216 0.35417,-4.81846 3.5,-4.81846 3.14583,0 3.5,3.3263 3.5,4.81846 z"
         sodipodi:nodetypes="ssszs" /><path
         id="rect46624"
         d="m 99.732165,187.18968 h 0.441655 c 1.05926,0.67532 0.47129,3.47109 -0.441655,3.52329 -0.292254,0 -0.609175,-0.34174 -0.52917,-0.74577 0.136777,-0.69074 0.314422,-1.3855 0,-2.03176 -0.180193,-0.37037 0.236919,-0.74576 0.52917,-0.74576 z m 7.133175,0 h -0.44166 c -1.05926,0.67532 -0.47129,3.47109 0.44166,3.52329 0.29225,0 0.60917,-0.34174 0.52916,-0.74577 -0.13677,-0.69074 -0.31442,-1.3855 0,-2.03176 0.1802,-0.37037 -0.23691,-0.74576 -0.52916,-0.74576 z"
         style="fill:#88b9a4;fill-opacity:1;stroke:none;stroke-width:0.399996;stroke-linecap:round;stroke-linejoin:round;stroke-dasharray:none;stroke-opacity:1;paint-order:markers fill stroke"
         sodipodi:nodetypes="sccsss"
         transform="translate(-189.68137,-78.470643)"
         inkscape:original-d="m 99.732165,187.18968 h 0.441655 c 1.05926,0.67532 0.47129,3.47109 -0.441655,3.52329 -0.292254,0 -0.609175,-0.34174 -0.52917,-0.74577 0.136777,-0.69074 0.314422,-1.3855 0,-2.03176 -0.180193,-0.37037 0.236919,-0.74576 0.52917,-0.74576 z"
         inkscape:path-effect="#path-effect46629-56"
         class="UnoptimicedTransforms" /><g
         id="g36162"
         transform="translate(-189.68352,-78.465643)"
         style="stroke-width:0.999993"
         inkscape:path-effect="#path-effect36164"
         class="UnoptimicedTransforms"><path
           id="path31877"
           style="opacity:1;fill:#ac7038;fill-opacity:1;stroke-width:0.299998;stroke-linecap:round;stroke-linejoin:round;paint-order:markers fill stroke"
           d="m 102.26454,179.47083 c 0,1.53805 -1.11929,2.78652 -2.499998,2.78652 -1.380712,0 -2.5,-0.3752 -2.5,-2.25735 0,-1.88215 0.337652,-3.95279 1.285458,-4.5 0.947806,-0.54722 3.71454,2.43278 3.71454,3.97083 z m 2.0722,0 c 0,1.53805 1.11929,2.78652 2.5,2.78652 1.38071,0 2.5,-0.3752 2.5,-2.25735 0,-1.88215 -0.33765,-3.95279 -1.28546,-4.5 -0.94781,-0.54722 -3.71454,2.43278 -3.71454,3.97083 z"
           sodipodi:nodetypes="zszzz"
           inkscape:original-d="m 102.26454,179.47083 c 0,1.53805 -1.11929,2.78652 -2.499998,2.78652 -1.380712,0 -2.5,-0.3752 -2.5,-2.25735 0,-1.88215 0.337652,-3.95279 1.285458,-4.5 0.947806,-0.54722 3.71454,2.43278 3.71454,3.97083 z" /><path
           id="path34502"
           style="opacity:1;fill:#fbbb81;fill-opacity:1;stroke-width:0.299998;stroke-linecap:round;stroke-linejoin:round;paint-order:markers fill stroke"
           d="m 101.15481,179.71249 c 0,0.90227 -0.56184,1.48298 -1.390269,1.48298 -0.828429,0 -1.614976,-0.29507 -1.614976,-1.48298 0,-1.18791 0.260536,-3.26434 1.039177,-2.98835 0.778641,0.27599 1.966068,2.08608 1.966068,2.98835 z m 4.29166,0 c 0,0.90227 0.56184,1.48298 1.39027,1.48298 0.82843,0 1.61498,-0.29507 1.61498,-1.48298 0,-1.18791 -0.26054,-3.26434 -1.03918,-2.98835 -0.77864,0.27599 -1.96607,2.08608 -1.96607,2.98835 z"
           sodipodi:nodetypes="zszzz"
           inkscape:original-d="m 101.15481,179.71249 c 0,0.90227 -0.56184,1.48298 -1.390269,1.48298 -0.828429,0 -1.614976,-0.29507 -1.614976,-1.48298 0,-1.18791 0.260536,-3.26434 1.039177,-2.98835 0.778641,0.27599 1.966068,2.08608 1.966068,2.98835 z" /></g><g
         id="g49220"
         transform="translate(-220.99945,-5.1167845)"
         style="stroke-width:0.999993"><g
           id="g49214"
           style="stroke-width:0.999993"><path
             id="path6932"
             style="fill:#f7af67;fill-opacity:1;stroke-width:0.999993;stroke-linecap:round;stroke-linejoin:round;stroke-dasharray:none;paint-order:markers fill stroke"
             d="m 134.61682,103.95784 c -4.36384,0 -7.27629,4.37383 -7.27629,7.22328 0,1.70968 3.25788,3.09547 7.27629,3.09547 4.01842,0 7.27579,-1.38579 7.27579,-3.09547 0,-2.84945 -2.91194,-7.22328 -7.27579,-7.22328 z" /><path
             style="fill:#aa7039;fill-opacity:1;stroke:none;stroke-width:0.00999993;stroke-linecap:round;stroke-linejoin:round;stroke-dasharray:none;paint-order:markers fill stroke"
             d="m 96.431246,185.55286 c 0,0 0.451938,-1.93451 1.79166,-3.27423 1.339721,-1.33972 3.284854,-1.22462 3.663214,0.18745 0.37836,1.41206 -0.87596,1.85482 -1.13934,2.83777 -0.26338,0.98296 2.55412,2.3216 2.55412,2.3216 0,0 -1.91464,0.0452 -4.14834,-0.552 -2.233703,-0.59719 -2.721314,-1.52059 -2.721314,-1.52059 z m 13.738784,0 c 0,0 -0.45193,-1.93451 -1.79166,-3.27423 -1.33972,-1.33972 -3.28485,-1.22462 -3.66321,0.18745 -0.37836,1.41206 0.87596,1.85482 1.13934,2.83777 0.26338,0.98296 -2.55412,2.3216 -2.55412,2.3216 0,0 1.91464,0.0452 4.14834,-0.552 2.2337,-0.59719 2.72131,-1.52059 2.72131,-1.52059 z"
             id="path9923"
             sodipodi:nodetypes="czzzczc"
             transform="translate(31.315925,-73.348859)"
             inkscape:original-d="m 96.431246,185.55286 c 0,0 0.451938,-1.93451 1.79166,-3.27423 1.339721,-1.33972 3.284854,-1.22462 3.663214,0.18745 0.37836,1.41206 -0.87596,1.85482 -1.13934,2.83777 -0.26338,0.98296 2.55412,2.3216 2.55412,2.3216 0,0 -1.91464,0.0452 -4.14834,-0.552 -2.233703,-0.59719 -2.721314,-1.52059 -2.721314,-1.52059 z"
             inkscape:path-effect="#path-effect30187"
             class="UnoptimicedTransforms" /></g><path
           style="fill:#f7af67;fill-opacity:1;stroke:none;stroke-width:0.299998;stroke-linecap:round;stroke-linejoin:round;stroke-dasharray:none;stroke-opacity:1;paint-order:markers fill stroke"
           d="m 96.431246,185.55286 c 0,0 -0.829368,-0.44496 -0.80363,-0.77869 0.02574,-0.33373 0.40739,-0.54518 0.40739,-0.54518 0,0 -1.029309,-0.43845 -0.639925,-0.84324 0.78975,-0.87348 1.435868,-1.85725 2.079009,-2.83895 z m 13.738784,0 c 0,0 0.82937,-0.44496 0.80363,-0.77869 -0.0257,-0.33373 -0.40739,-0.54518 -0.40739,-0.54518 0,0 1.02931,-0.43845 0.63993,-0.84324 -0.78975,-0.87348 -1.43587,-1.85725 -2.07901,-2.83895 z"
           id="path30267"
           sodipodi:nodetypes="czcccc"
           transform="translate(31.315925,-73.348859)"
           inkscape:original-d="m 96.431246,185.55286 c 0,0 -0.829368,-0.44496 -0.80363,-0.77869 0.02574,-0.33373 0.40739,-0.54518 0.40739,-0.54518 0,0 -1.029309,-0.43845 -0.639925,-0.84324 0.78975,-0.87348 1.435868,-1.85725 2.079009,-2.83895 z"
           inkscape:path-effect="#path-effect31745"
           class="UnoptimicedTransforms" /></g><g
         id="g30139"
         transform="translate(-189.68352,-78.465643)"
         style="stroke-width:0.999993"><path
           id="path9138"
           style="opacity:1;fill:#fcd8a5;fill-opacity:1;stroke-width:0.00999993;stroke-linecap:round;stroke-linejoin:round;paint-order:markers fill stroke"
           d="m 105.94648,186.00208 c 0,1.46126 -1.36097,1.62337 -2.64558,1.62337 -1.28461,0 -2.64609,-0.16212 -2.64609,-1.62337 0,-1.46125 1.18458,-2.70373 2.64583,-2.70373 1.14838,0 2.64584,1.24247 2.64584,2.70373 z"
           sodipodi:nodetypes="zzzsz" /><g
           id="g30133"
           style="stroke-width:0.999993"><path
             id="path18742"
             style="opacity:1;fill:#383d3f;stroke-width:0.999993;stroke-linecap:round;stroke-linejoin:round;paint-order:markers fill stroke"
             d="m 103.95065,184.09708 c 0,0.2051 -0.29102,0.42791 -0.65001,0.42791 -0.35898,0 -0.64999,-0.22281 -0.64999,-0.42791 -1e-5,-0.2051 0.17791,-0.31482 0.64999,-0.31482 0.47208,0 0.65002,0.10972 0.65001,0.31482 z"
             sodipodi:nodetypes="ssszs" /><path
             style="opacity:1;fill:none;fill-opacity:1;stroke:#393d40;stroke-width:0.399997;stroke-linecap:round;stroke-linejoin:round;stroke-dasharray:none;stroke-opacity:1;paint-order:markers fill stroke"
             d="m 102.62565,185.36077 c 0.48823,0.47391 0.9298,0.37223 1.35,0.007"
             id="path21007"
             sodipodi:nodetypes="cc" /></g></g><g
         id="g30129"
         transform="translate(-189.68352,-78.465643)"
         style="stroke-width:0.999993"><ellipse
           style="fill:#3d3f43;fill-opacity:1;stroke:none;stroke-width:0.299998;stroke-linecap:round;stroke-linejoin:round;stroke-dasharray:none;stroke-opacity:1;paint-order:markers fill stroke"
           id="path28656"
           cx="100.65481"
           cy="183.29836"
           rx="0.5"
           ry="0.69999999" /><ellipse
           style="opacity:1;fill:#3d3f43;fill-opacity:1;stroke:none;stroke-width:0.299998;stroke-linecap:round;stroke-linejoin:round;stroke-dasharray:none;stroke-opacity:1;paint-order:markers fill stroke"
           id="path28656-6"
           cx="105.94648"
           cy="183.29836"
           rx="0.5"
           ry="0.69999999" /></g></g></g></svg>
