<?xml version="1.0" encoding="UTF-8" standalone="no"?>
<!-- Created with Inkscape (http://www.inkscape.org/) -->

<svg
   width="14.266328mm"
   height="21.787901mm"
   viewBox="0 0 14.266328 21.787901"
   version="1.1"
   id="svg372"
   inkscape:version="1.2.2 (b0a8486541, 2022-12-01)"
   sodipodi:docname="panda.svg"
   xmlns:inkscape="http://www.inkscape.org/namespaces/inkscape"
   xmlns:sodipodi="http://sodipodi.sourceforge.net/DTD/sodipodi-0.dtd"
   xmlns="http://www.w3.org/2000/svg"
   xmlns:svg="http://www.w3.org/2000/svg">
  <sodipodi:namedview
     id="namedview374"
     pagecolor="#505050"
     bordercolor="#ffffff"
     borderopacity="1"
     inkscape:showpageshadow="0"
     inkscape:pageopacity="0"
     inkscape:pagecheckerboard="1"
     inkscape:deskcolor="#d1d1d1"
     inkscape:document-units="mm"
     showgrid="false"
     inkscape:zoom="0.75277076"
     inkscape:cx="363.32442"
     inkscape:cy="349.37595"
     inkscape:window-width="1634"
     inkscape:window-height="749"
     inkscape:window-x="173"
     inkscape:window-y="761"
     inkscape:window-maximized="0"
     inkscape:current-layer="layer1" />
  <defs
     id="defs369">
    <inkscape:path-effect
       effect="mirror_symmetry"
       start_point="146.75133,37.116594"
       end_point="146.75133,58.904495"
       center_point="146.75133,48.010544"
       id="path-effect25946"
       is_visible="true"
       lpeversion="1.2"
       lpesatellites=""
       mode="free"
       discard_orig_path="false"
       fuse_paths="true"
       oposite_fuse="false"
       split_items="false"
       split_open="false"
       link_styles="false" />
  </defs>
  <g
     inkscape:label="Camada 1"
     inkscape:groupmode="layer"
     id="layer1"
     transform="translate(-9.0348862,-56.238594)">
    <g
       id="g25944"
       transform="translate(-130.58328,19.122)"
       inkscape:path-effect="#path-effect25946"
       class="UnoptimicedTransforms">
      <path
         id="path12983"
         style="fill:#3a3b40;fill-opacity:1;stroke-width:2.99999;stroke-linecap:round;stroke-linejoin:round;paint-order:markers fill stroke"
         d="m 143.28161,51.557677 c -1.22441,1.224413 -2.55711,2.390763 -3.38503,1.562842 -0.82792,-0.827921 0.33843,-2.160618 1.56284,-3.385032 1.22442,-1.224414 2.10672,-1.813391 2.87115,-1.048961 0.76443,0.764428 0.17546,1.646737 -1.04896,2.871151 z m 6.93944,0 c 1.22441,1.224413 2.55711,2.390763 3.38503,1.562842 0.82792,-0.827921 -0.33843,-2.160618 -1.56284,-3.385032 -1.22442,-1.224414 -2.10672,-1.813391 -2.87115,-1.048961 -0.76443,0.764428 -0.17546,1.646737 1.04896,2.871151 z"
         sodipodi:nodetypes="szszs"
         inkscape:transform-center-x="12.738156"
         inkscape:transform-center-y="12.972813"
         inkscape:original-d="m 143.28161,51.557677 c -1.22441,1.224413 -2.55711,2.390763 -3.38503,1.562842 -0.82792,-0.827921 0.33843,-2.160618 1.56284,-3.385032 1.22442,-1.224414 2.10672,-1.813391 2.87115,-1.048961 0.76443,0.764428 0.17546,1.646737 -1.04896,2.871151 z" />
      <path
         style="fill:#3a3b40;fill-opacity:1;stroke:none;stroke-width:2.99999;stroke-linecap:round;stroke-linejoin:round;stroke-dasharray:none;paint-order:markers fill stroke"
         d="m 144.51238,58.904495 c -2.23896,0 -1.48643,-4.474621 -1.48643,-5.821381 0,-1.346759 1.18467,-1.658109 2.21362,-1.064048 1.02895,0.594062 0.12839,2.472122 0.12839,3.349688 0,0.877566 1.38337,3.535741 -0.85558,3.535741 z m 4.4779,0 c 2.23896,0 1.48643,-4.474621 1.48643,-5.821381 0,-1.346759 -1.18467,-1.658109 -2.21362,-1.064048 -1.02895,0.594062 -0.12839,2.472122 -0.12839,3.349688 0,0.877566 -1.38337,3.535741 0.85558,3.535741 z"
         id="path12985"
         sodipodi:nodetypes="zzzzz"
         inkscape:original-d="m 144.51238,58.904495 c -2.23896,0 -1.48643,-4.474621 -1.48643,-5.821381 0,-1.346759 1.18467,-1.658109 2.21362,-1.064048 1.02895,0.594062 0.12839,2.472122 0.12839,3.349688 0,0.877566 1.38337,3.535741 -0.85558,3.535741 z" />
      <g
         id="g12991"
         style="stroke-width:9.24049"
         transform="matrix(0.10821901,0,0,0.10821901,126.58552,33.189559)">
        <path
           style="opacity:1;fill:#ffffff;fill-opacity:1;stroke:none;stroke-width:27.7215;stroke-linecap:round;stroke-linejoin:round;stroke-dasharray:none;paint-order:markers fill stroke"
           d="m 186.34831,125.52211 c -16.5871,0 -31.7678,6.5433 -35.40995,39.05564 -3.64206,32.51234 16.07675,41.94329 35.40995,41.94329 19.3333,0 39.05211,-9.43095 35.40996,-41.94329 -3.64206,-32.51234 -18.82276,-39.05564 -35.40996,-39.05564 z"
           id="path12987"
           sodipodi:nodetypes="czcc"
           inkscape:original-d="m 186.34261,206.51941 c -19.33325,0 -39.05328,-9.42398 -35.41119,-41.93633 3.64209,-32.51235 18.82403,-39.05854 35.41119,-39.05854 z" />
        <path
           style="opacity:1;fill:#2e2f33;fill-opacity:1;stroke:none;stroke-width:27.7215;stroke-linecap:round;stroke-linejoin:round;stroke-dasharray:none;stroke-opacity:1;paint-order:markers fill stroke"
           d="m 186.34831,125.52211 c -18.53075,0 -27.99499,2.69395 -33.64122,28.53372 8.37468,4.83513 24.2024,5.5768 33.64122,5.5768 9.43892,0 25.26664,-0.74167 33.64132,-5.5768 -5.64633,-25.83977 -15.11047,-28.53372 -33.64132,-28.53372 z"
           id="path12989"
           sodipodi:nodetypes="cccc"
           inkscape:original-d="m 186.34261,159.63607 c -9.43886,0 -25.26572,-0.74319 -33.64042,-5.57832 5.64629,-25.83978 15.10959,-28.53321 33.64042,-28.53321 z" />
      </g>
      <path
         id="path12993"
         style="fill:#2e2f33;fill-opacity:1;stroke-width:9.99997;stroke-linecap:round;stroke-linejoin:round;paint-order:markers fill stroke"
         d="m 142.68831,37.116594 c -0.74909,0 -1.82342,0.82509 -1.82342,2.339411 0,1.514321 1.39343,2.085591 2.07722,2.085591 0.68379,0 1.5126,-0.16769 1.5126,-1.809733 0,-1.642043 -1.01731,-2.615269 -1.7664,-2.615269 z m 8.12604,0 c 0.74909,0 1.82342,0.82509 1.82342,2.339411 0,1.514321 -1.39343,2.085591 -2.07722,2.085591 -0.68379,0 -1.5126,-0.16769 -1.5126,-1.809733 0,-1.642043 1.01731,-2.615269 1.7664,-2.615269 z"
         sodipodi:nodetypes="zzzzz"
         inkscape:original-d="m 142.68831,37.116594 c -0.74909,0 -1.82342,0.82509 -1.82342,2.339411 0,1.514321 1.39343,2.085591 2.07722,2.085591 0.68379,0 1.5126,-0.16769 1.5126,-1.809733 0,-1.642043 -1.01731,-2.615269 -1.7664,-2.615269 z" />
      <path
         style="fill:#88b9a4;fill-opacity:1;stroke:none;stroke-width:0.399999;stroke-linecap:round;stroke-linejoin:round;stroke-dasharray:none;stroke-opacity:1;paint-order:markers fill stroke"
         d="m 143.0382,50.203672 c 0.20657,-0.770916 -0.0578,-1.049782 -0.305,-1.558101 -0.24729,-0.508319 -0.16054,-0.904283 0.95891,-0.904283 1.11945,0 -0.16737,5.47547 -0.66614,5.341826 -0.49877,-0.133644 -0.19433,-2.108526 0.0122,-2.879442 z m 7.42626,0 c -0.20657,-0.770916 0.0578,-1.049782 0.305,-1.558101 0.24729,-0.508319 0.16054,-0.904283 -0.95891,-0.904283 -1.11945,0 0.16737,5.47547 0.66614,5.341826 0.49877,-0.133644 0.19433,-2.108526 -0.0122,-2.879442 z"
         id="rect46624-9"
         sodipodi:nodetypes="zzzzz"
         inkscape:original-d="m 143.0382,50.203672 c 0.20657,-0.770916 -0.0578,-1.049782 -0.305,-1.558101 -0.24729,-0.508319 -0.16054,-0.904283 0.95891,-0.904283 1.11945,0 -0.16737,5.47547 -0.66614,5.341826 -0.49877,-0.133644 -0.19433,-2.108526 0.0122,-2.879442 z" />
      <path
         style="fill:#ffffff;stroke-width:9.99997;stroke-linecap:round;stroke-linejoin:round;paint-order:markers fill stroke"
         d="m 146.75195,38.394531 c -0.80794,0 -2.5255,-0.0057 -4.05859,1.527344 -1.53309,1.533088 -2.71975,4.667546 -1.65039,6.626953 1.06937,1.959407 4.85715,2.119141 5.70898,2.119141 0.85183,0 4.63766,-0.159734 5.70703,-2.119141 1.06936,-1.959407 -0.1173,-5.093865 -1.65039,-6.626953 -1.53309,-1.533088 -3.2487,-1.527344 -4.05664,-1.527344 z"
         id="path12995"
         sodipodi:nodetypes="cczzc"
         inkscape:original-d="m 146.75133,38.394594 v 10.272612 c -0.85183,0 -4.63886,-0.158205 -5.70823,-2.117612 -1.06936,-1.959407 0.11779,-5.093912 1.65088,-6.627 1.53309,-1.533088 3.24941,-1.528 4.05735,-1.528 z" />
      <path
         style="fill:#3a3b40;fill-opacity:1;stroke:none;stroke-width:2.99999;stroke-linecap:round;stroke-linejoin:round;stroke-dasharray:none;stroke-opacity:1;paint-order:markers fill stroke"
         d="m 142.7505,42.309644 c -0.67341,0.673417 -1.00659,1.922128 -0.5502,2.737702 0.45639,0.815575 1.5889,0.962627 2.51926,0.03227 0.93037,-0.930362 0.94226,-2.47473 0.28727,-3.12972 -0.65499,-0.65499 -1.58291,-0.313663 -2.25633,0.359753 z m 8.00166,0 c 0.67341,0.673417 1.00659,1.922128 0.5502,2.737702 -0.45639,0.815575 -1.5889,0.962627 -2.51926,0.03227 -0.93037,-0.930362 -0.94226,-2.47473 -0.28727,-3.12972 0.65499,-0.65499 1.58291,-0.313663 2.25633,0.359753 z"
         id="path12997"
         sodipodi:nodetypes="zzzzz"
         inkscape:original-d="m 142.7505,42.309644 c -0.67341,0.673417 -1.00659,1.922128 -0.5502,2.737702 0.45639,0.815575 1.5889,0.962627 2.51926,0.03227 0.93037,-0.930362 0.94226,-2.47473 0.28727,-3.12972 -0.65499,-0.65499 -1.58291,-0.313663 -2.25633,0.359753 z" />
      <ellipse
         style="fill:#151719;fill-opacity:1;stroke:none;stroke-width:3.16988;stroke-linecap:round;stroke-linejoin:round;stroke-dasharray:none;stroke-opacity:1;paint-order:markers fill stroke"
         id="path18596"
         cx="144.31058"
         cy="43.831345"
         rx="0.42057297"
         ry="0.5869751"
         d="m 144.73115,43.831345 c 0,0.324177 -0.1883,0.586975 -0.42057,0.586975 -0.23228,0 -0.42058,-0.262798 -0.42058,-0.586975 0,-0.324178 0.1883,-0.586975 0.42058,-0.586975 0.23227,0 0.42057,0.262797 0.42057,0.586975 z m 4.04036,0 c 0,0.324177 0.1883,0.586975 0.42057,0.586975 0.23228,0 0.42058,-0.262798 0.42058,-0.586975 0,-0.324178 -0.1883,-0.586975 -0.42058,-0.586975 -0.23227,0 -0.42057,0.262797 -0.42057,0.586975 z" />
      <path
         style="fill:#151719;fill-opacity:1;stroke:none;stroke-width:9.99997;stroke-linecap:round;stroke-linejoin:round;paint-order:markers fill stroke"
         d="m 146.75195,44.322266 c -0.25091,0 -0.74609,0.06263 -0.74609,0.447265 0,0.384639 0.4445,0.611328 0.74609,0.611328 0.30159,0 0.74414,-0.226689 0.74414,-0.611328 0,-0.384638 -0.49323,-0.447265 -0.74414,-0.447265 z"
         id="path13001"
         sodipodi:nodetypes="cczc"
         inkscape:original-d="m 146.75133,44.323115 v 1.056946 c -0.30159,0 -0.74542,-0.225621 -0.74542,-0.61026 0,-0.384638 0.49451,-0.446686 0.74542,-0.446686 z" />
      <path
         style="fill:#ffffff;stroke:#16181a;stroke-width:0.4;stroke-linecap:round;stroke-linejoin:round;stroke-dasharray:none;stroke-opacity:1;paint-order:markers fill stroke"
         d="m 145.91152,46.000726 c 0.20824,0.22972 0.47207,0.407869 0.83981,0.407869 0.36774,0 0.63157,-0.178149 0.83981,-0.407869"
         id="path13003"
         sodipodi:nodetypes="cc"
         inkscape:original-d="m 145.91152,46.000726 c 0.20824,0.22972 0.47207,0.407869 0.83981,0.407869" />
    </g>
  </g>
</svg>
