<?xml version="1.0" encoding="UTF-8" standalone="no"?>
<!-- Created with Inkscape (http://www.inkscape.org/) -->

<svg
   width="15.987075mm"
   height="20.073902mm"
   viewBox="0 0 15.987075 20.073902"
   version="1.1"
   id="svg333"
   inkscape:version="1.2.2 (b0a8486541, 2022-12-01)"
   sodipodi:docname="raccoon_modified_dontuse.svg"
   xmlns:inkscape="http://www.inkscape.org/namespaces/inkscape"
   xmlns:sodipodi="http://sodipodi.sourceforge.net/DTD/sodipodi-0.dtd"
   xmlns="http://www.w3.org/2000/svg"
   xmlns:svg="http://www.w3.org/2000/svg">
  <sodipodi:namedview
     id="namedview335"
     pagecolor="#505050"
     bordercolor="#ffffff"
     borderopacity="1"
     inkscape:showpageshadow="0"
     inkscape:pageopacity="0"
     inkscape:pagecheckerboard="1"
     inkscape:deskcolor="#d1d1d1"
     inkscape:document-units="mm"
     showgrid="false"
     inkscape:zoom="12.044332"
     inkscape:cx="22.956856"
     inkscape:cy="38.524344"
     inkscape:window-width="1854"
     inkscape:window-height="1011"
     inkscape:window-x="66"
     inkscape:window-y="32"
     inkscape:window-maximized="1"
     inkscape:current-layer="g49220" />
  <defs
     id="defs330">
    <inkscape:path-effect
       effect="mirror_symmetry"
       start_point="103.30064,182.96889"
       end_point="103.30064,183.62781"
       center_point="103.30064,183.29835"
       id="path-effect30187"
       is_visible="true"
       lpeversion="1.2"
       lpesatellites=""
       mode="free"
       discard_orig_path="false"
       fuse_paths="false"
       oposite_fuse="false"
       split_items="false"
       split_open="false"
       link_styles="false" />
    <inkscape:path-effect
       effect="mirror_symmetry"
       start_point="103.30064,183.05282"
       end_point="103.30064,183.54388"
       center_point="103.30064,183.29835"
       id="path-effect31745"
       is_visible="true"
       lpeversion="1.2"
       lpesatellites=""
       mode="free"
       discard_orig_path="false"
       fuse_paths="false"
       oposite_fuse="false"
       split_items="false"
       split_open="false"
       link_styles="false" />
    <inkscape:path-effect
       effect="mirror_symmetry"
       start_point="103.30064,179.88657"
       end_point="103.30064,186.71013"
       center_point="103.30064,183.29835"
       id="path-effect36164"
       is_visible="true"
       lpeversion="1.2"
       lpesatellites=""
       mode="free"
       discard_orig_path="false"
       fuse_paths="false"
       oposite_fuse="false"
       split_items="false"
       split_open="false"
       link_styles="false" />
    <inkscape:path-effect
       effect="mirror_symmetry"
       start_point="103.29875,185.86881"
       end_point="103.29875,189.3921"
       center_point="103.29875,187.63045"
       id="path-effect46629"
       is_visible="true"
       lpeversion="1.2"
       lpesatellites=""
       mode="free"
       discard_orig_path="false"
       fuse_paths="false"
       oposite_fuse="false"
       split_items="false"
       split_open="false"
       link_styles="false" />
    <inkscape:path-effect
       effect="mirror_symmetry"
       start_point="103.29875,185.53467"
       end_point="103.29875,189.72622"
       center_point="103.29875,187.63045"
       id="path-effect40122"
       is_visible="true"
       lpeversion="1.2"
       lpesatellites=""
       mode="free"
       discard_orig_path="false"
       fuse_paths="false"
       oposite_fuse="false"
       split_items="false"
       split_open="false"
       link_styles="false" />
    <inkscape:path-effect
       effect="mirror_symmetry"
       start_point="103.2985,190.50754"
       end_point="103.2985,195.60696"
       center_point="103.2985,193.05725"
       id="path-effect43974"
       is_visible="true"
       lpeversion="1.2"
       lpesatellites=""
       mode="free"
       discard_orig_path="false"
       fuse_paths="false"
       oposite_fuse="false"
       split_items="false"
       split_open="false"
       link_styles="false" />
  </defs>
  <g
     inkscape:label="Camada 1"
     inkscape:groupmode="layer"
     id="layer1"
     transform="translate(-117.83605,-101.38198)">
    <path
       id="path39270-9"
       style="fill:#e59f5c;fill-opacity:1;stroke:none;stroke-width:0.3;stroke-linecap:round;stroke-linejoin:round;stroke-dasharray:none;stroke-opacity:1;paint-order:markers fill stroke"
       d="m 101.15266,190.71297 c -0.55225,4e-5 -1.199625,0.44771 -1.199655,0.99994 l -1e-5,2.37037 c -5e-6,1.19643 0.747805,1.7291 1.300045,1.72911 0.55224,0 0.89957,-0.5004 0.89957,-1.52911 0,-0.47129 -10e-6,-1.53771 -10e-6,-2.57037 -4e-5,-0.55223 -0.44769,-0.99991 -0.99994,-0.99994 z m 4.29168,0 c 0.55225,4e-5 1.19963,0.44771 1.19966,0.99994 l 10e-6,2.37037 c 0,1.19643 -0.74781,1.7291 -1.30005,1.72911 -0.55224,0 -0.89957,-0.5004 -0.89957,-1.52911 0,-0.47129 1e-5,-1.53771 1e-5,-2.57037 4e-5,-0.55223 0.44769,-0.99991 0.99994,-0.99994 z"
       sodipodi:nodetypes="ccszscc"
       inkscape:transform-center-y="1.5497215"
       inkscape:transform-center-x="7.34534e-05"
       inkscape:path-effect="#path-effect43974"
       inkscape:original-d="m 101.15266,190.71297 c -0.55225,4e-5 -1.199625,0.44771 -1.199655,0.99994 l -1e-5,2.37037 c -5e-6,1.19643 0.747805,1.7291 1.300045,1.72911 0.55224,0 0.89957,-0.5004 0.89957,-1.52911 0,-0.47129 -10e-6,-1.53771 -10e-6,-2.57037 -4e-5,-0.55223 -0.44769,-0.99991 -0.99994,-0.99994 z"
       class="UnoptimicedTransforms"
       transform="matrix(0.99999851,0,0,1,22.531173,-74.356504)" />
    <path
       id="path39270"
       style="fill:#e59f5c;fill-opacity:1;stroke:none;stroke-width:0.3;stroke-linecap:round;stroke-linejoin:round;stroke-dasharray:none;stroke-opacity:1;paint-order:markers fill stroke"
       d="m 101.08352,187.66357 c -0.39051,-0.39047 -1.02361,-0.39047 -1.414127,0 l -2.191712,2.19171 c -0.39047,0.39052 -0.390473,1.02362 10e-7,1.41413 0.390514,0.39048 1.023615,0.39048 1.414129,0 l 2.191709,-2.19171 c 0.39047,-0.39051 0.39047,-1.02361 0,-1.41413 z m 4.43046,0 c 0.39051,-0.39047 1.02361,-0.39047 1.41413,0 l 2.19171,2.19171 c 0.39047,0.39052 0.39047,1.02362 0,1.41413 -0.39052,0.39048 -1.02362,0.39048 -1.41413,0 l -2.19171,-2.19171 c -0.39047,-0.39051 -0.39047,-1.02361 0,-1.41413 z"
       sodipodi:nodetypes="ccccccc"
       inkscape:transform-center-y="1.0958179"
       inkscape:transform-center-x="1.095819"
       inkscape:path-effect="#path-effect40122"
       inkscape:original-d="m 101.08352,187.66357 c -0.39051,-0.39047 -1.02361,-0.39047 -1.414127,0 l -2.191712,2.19171 c -0.39047,0.39052 -0.390473,1.02362 10e-7,1.41413 0.390514,0.39048 1.023615,0.39048 1.414129,0 0,0 1.461509,-1.46151 2.191709,-2.19171 0.39047,-0.39051 0.39047,-1.02361 0,-1.41413 z"
       class="UnoptimicedTransforms"
       transform="translate(22.531096,-74.056811)" />
    <path
       id="path36298"
       style="fill:#f9b16a;fill-opacity:1;stroke-width:0.3;stroke-linecap:round;stroke-linejoin:round;paint-order:markers fill stroke"
       d="m 129.32959,116.29864 c 0,1.49216 -1.567,2.7018 -3.5,2.7018 -1.933,0 -3.5,-1.20964 -3.5,-2.7018 1e-5,-1.49216 0.35417,-4.81846 3.5,-4.81846 3.14583,0 3.5,3.3263 3.5,4.81846 z"
       sodipodi:nodetypes="ssszs" />
    <path
       id="rect46624"
       d="m 99.732165,187.18968 h 0.441655 c 1.05926,0.67532 0.47129,3.47109 -0.441655,3.52329 -0.292254,0 -0.609175,-0.34174 -0.52917,-0.74577 0.136777,-0.69074 0.314422,-1.3855 0,-2.03176 -0.180193,-0.37037 0.236919,-0.74576 0.52917,-0.74576 z m 7.133175,0 h -0.44166 c -1.05926,0.67532 -0.47129,3.47109 0.44166,3.52329 0.29225,0 0.60917,-0.34174 0.52916,-0.74577 -0.13677,-0.69074 -0.31442,-1.3855 0,-2.03176 0.1802,-0.37037 -0.23691,-0.74576 -0.52916,-0.74576 z"
       style="fill:#88b9a4;fill-opacity:1;stroke:none;stroke-width:0.399999;stroke-linecap:round;stroke-linejoin:round;stroke-dasharray:none;stroke-opacity:1;paint-order:markers fill stroke"
       sodipodi:nodetypes="sccsss"
       inkscape:path-effect="#path-effect46629"
       inkscape:original-d="m 99.732165,187.18968 h 0.441655 c 1.05926,0.67532 0.47129,3.47109 -0.441655,3.52329 -0.292254,0 -0.609175,-0.34174 -0.52917,-0.74577 0.136777,-0.69074 0.314422,-1.3855 0,-2.03176 -0.180193,-0.37037 0.236919,-0.74576 0.52917,-0.74576 z"
       class="UnoptimicedTransforms"
       transform="translate(22.531096,-74.056811)" />
    <g
       id="g36162"
       inkscape:path-effect="#path-effect36164"
       class="UnoptimicedTransforms"
       transform="translate(22.528946,-74.051811)">
      <path
         id="path31877"
         style="opacity:1;fill:#ac7038;fill-opacity:1;stroke-width:0.3;stroke-linecap:round;stroke-linejoin:round;paint-order:markers fill stroke"
         d="m 102.26454,179.47083 c 0,1.53805 -1.11929,2.78652 -2.499998,2.78652 -1.380712,0 -2.5,-0.3752 -2.5,-2.25735 0,-1.88215 0.337652,-3.95279 1.285458,-4.5 0.947806,-0.54722 3.71454,2.43278 3.71454,3.97083 z m 2.0722,0 c 0,1.53805 1.11929,2.78652 2.5,2.78652 1.38071,0 2.5,-0.3752 2.5,-2.25735 0,-1.88215 -0.33765,-3.95279 -1.28546,-4.5 -0.94781,-0.54722 -3.71454,2.43278 -3.71454,3.97083 z"
         sodipodi:nodetypes="zszzz"
         inkscape:original-d="m 102.26454,179.47083 c 0,1.53805 -1.11929,2.78652 -2.499998,2.78652 -1.380712,0 -2.5,-0.3752 -2.5,-2.25735 0,-1.88215 0.337652,-3.95279 1.285458,-4.5 0.947806,-0.54722 3.71454,2.43278 3.71454,3.97083 z" />
      <path
         id="path34502"
         style="opacity:1;fill:#fbbb81;fill-opacity:1;stroke-width:0.3;stroke-linecap:round;stroke-linejoin:round;paint-order:markers fill stroke"
         d="m 101.15481,179.71249 c 0,0.90227 -0.56184,1.48298 -1.390269,1.48298 -0.828429,0 -1.614976,-0.29507 -1.614976,-1.48298 0,-1.18791 0.260536,-3.26434 1.039177,-2.98835 0.778641,0.27599 1.966068,2.08608 1.966068,2.98835 z m 4.29166,0 c 0,0.90227 0.56184,1.48298 1.39027,1.48298 0.82843,0 1.61498,-0.29507 1.61498,-1.48298 0,-1.18791 -0.26054,-3.26434 -1.03918,-2.98835 -0.77864,0.27599 -1.96607,2.08608 -1.96607,2.98835 z"
         sodipodi:nodetypes="zszzz"
         inkscape:original-d="m 101.15481,179.71249 c 0,0.90227 -0.56184,1.48298 -1.390269,1.48298 -0.828429,0 -1.614976,-0.29507 -1.614976,-1.48298 0,-1.18791 0.260536,-3.26434 1.039177,-2.98835 0.778641,0.27599 1.966068,2.08608 1.966068,2.98835 z" />
    </g>
    <g
       id="g49220"
       transform="translate(-8.7869792,-0.70295158)">
      <g
         id="g49214">
        <path
           id="path6932"
           style="fill:#f7af67;fill-opacity:1;stroke-width:1;stroke-linecap:round;stroke-linejoin:round;stroke-dasharray:none;paint-order:markers fill stroke"
           d="M 134.61686 103.95769 C 132.09671 103.95769 130.06044 105.41636 128.78982 107.1978 C 128.78846 107.1997 128.78704 107.20158 128.78569 107.20348 C 128.661 107.37859 128.54444 107.55707 128.4348 107.7373 C 127.90488 108.53646 127.35576 109.32365 126.71088 110.0369 C 126.3215 110.44169 127.35115 110.88026 127.35115 110.88026 C 127.35115 110.88026 126.96916 111.09172 126.94342 111.42545 C 126.91769 111.75918 127.74699 112.20421 127.74699 112.20421 L 127.74699 112.20318 C 128.73949 113.4105 131.4404 114.27644 134.61686 114.27644 C 137.79332 114.27644 140.49384 113.4105 141.4862 112.20318 L 141.4862 112.20421 C 141.4862 112.20421 142.31551 111.75918 142.28977 111.42545 C 142.26403 111.09172 141.88205 110.88026 141.88205 110.88026 C 141.88205 110.88026 142.9117 110.44169 142.52232 110.0369 C 141.87743 109.32365 141.32832 108.53646 140.79839 107.7373 C 139.57194 105.72077 137.38733 103.95769 134.61686 103.95769 z " />
        <path
           style="fill:#aa7039;fill-opacity:1;stroke:none;stroke-width:0.01;stroke-linecap:round;stroke-linejoin:round;stroke-dasharray:none;paint-order:markers fill stroke"
           d="m 96.431246,185.55286 c 0,0 0.451938,-1.93451 1.79166,-3.27423 1.339721,-1.33972 3.284854,-1.22462 3.663214,0.18745 0.37836,1.41206 -0.87596,1.85482 -1.13934,2.83777 -0.26338,0.98296 2.55412,2.3216 2.55412,2.3216 0,0 -1.91464,0.0452 -4.14834,-0.552 -2.233703,-0.59719 -2.721314,-1.52059 -2.721314,-1.52059 z m 13.738784,0 c 0,0 -0.45193,-1.93451 -1.79166,-3.27423 -1.33972,-1.33972 -3.28485,-1.22462 -3.66321,0.18745 -0.37836,1.41206 0.87596,1.85482 1.13934,2.83777 0.26338,0.98296 -2.55412,2.3216 -2.55412,2.3216 0,0 1.91464,0.0452 4.14834,-0.552 2.2337,-0.59719 2.72131,-1.52059 2.72131,-1.52059 z"
           id="path9923"
           sodipodi:nodetypes="czzzczc"
           inkscape:path-effect="#path-effect30187"
           inkscape:original-d="m 96.431246,185.55286 c 0,0 0.451938,-1.93451 1.79166,-3.27423 1.339721,-1.33972 3.284854,-1.22462 3.663214,0.18745 0.37836,1.41206 -0.87596,1.85482 -1.13934,2.83777 -0.26338,0.98296 2.55412,2.3216 2.55412,2.3216 0,0 -1.91464,0.0452 -4.14834,-0.552 -2.233703,-0.59719 -2.721314,-1.52059 -2.721314,-1.52059 z"
           class="UnoptimicedTransforms"
           transform="translate(31.315925,-73.348859)" />
      </g>
    </g>
    <g
       id="g30139"
       transform="translate(22.528946,-74.051811)">
      <path
         id="path9138"
         style="opacity:1;fill:#fcd8a5;fill-opacity:1;stroke-width:0.01;stroke-linecap:round;stroke-linejoin:round;paint-order:markers fill stroke"
         d="m 105.94648,186.00208 c 0,1.46126 -1.36097,1.62337 -2.64558,1.62337 -1.28461,0 -2.64609,-0.16212 -2.64609,-1.62337 0,-1.46125 1.18458,-2.70373 2.64583,-2.70373 1.14838,0 2.64584,1.24247 2.64584,2.70373 z"
         sodipodi:nodetypes="zzzsz" />
      <g
         id="g30133">
        <path
           id="path18742"
           style="opacity:1;fill:#383d3f;stroke-width:1;stroke-linecap:round;stroke-linejoin:round;paint-order:markers fill stroke"
           d="m 103.95065,184.09708 c 0,0.2051 -0.29102,0.42791 -0.65001,0.42791 -0.35898,0 -0.64999,-0.22281 -0.64999,-0.42791 -1e-5,-0.2051 0.17791,-0.31482 0.64999,-0.31482 0.47208,0 0.65002,0.10972 0.65001,0.31482 z"
           sodipodi:nodetypes="ssszs" />
        <path
           style="color:#000000;fill:#393d40;stroke-linecap:round;stroke-linejoin:round;-inkscape-stroke:none;paint-order:markers fill stroke"
           d="m 102.76563,185.2168 a 0.2,0.2 0 0 0 -0.28321,0.004 0.2,0.2 0 0 0 0.004,0.28321 c 0.27087,0.26292 0.5632,0.39013 0.84961,0.375 0.2864,-0.0151 0.54214,-0.16004 0.77148,-0.35938 a 0.2,0.2 0 0 0 0.0195,-0.2832 0.2,0.2 0 0 0 -0.2832,-0.0195 c -0.19086,0.16588 -0.36585,0.25318 -0.52734,0.26172 -0.16149,0.009 -0.33342,-0.0507 -0.55078,-0.26172 z"
           id="path21007" />
      </g>
    </g>
    <g
       id="g30129"
       transform="translate(22.528946,-74.051811)">
      <ellipse
         style="fill:#3d3f43;fill-opacity:1;stroke:none;stroke-width:0.3;stroke-linecap:round;stroke-linejoin:round;stroke-dasharray:none;stroke-opacity:1;paint-order:markers fill stroke"
         id="path28656"
         cx="100.65481"
         cy="183.29836"
         rx="0.5"
         ry="0.69999999" />
      <ellipse
         style="opacity:1;fill:#3d3f43;fill-opacity:1;stroke:none;stroke-width:0.3;stroke-linecap:round;stroke-linejoin:round;stroke-dasharray:none;stroke-opacity:1;paint-order:markers fill stroke"
         id="path28656-6"
         cx="105.94648"
         cy="183.29836"
         rx="0.5"
         ry="0.69999999" />
    </g>
  </g>
</svg>
