<?xml version="1.0" encoding="UTF-8" standalone="no"?>
<!-- Created with Inkscape (http://www.inkscape.org/) -->

<svg
   width="67.73333mm"
   height="67.73333mm"
   viewBox="0 0 67.73333 67.73333"
   version="1.1"
   id="svg382"
   inkscape:version="1.2.2 (b0a8486541, 2022-12-01)"
   sodipodi:docname="favicon2.svg"
   xml:space="preserve"
   inkscape:export-filename="../../../favicon2.png"
   inkscape:export-xdpi="96"
   inkscape:export-ydpi="96"
   xmlns:inkscape="http://www.inkscape.org/namespaces/inkscape"
   xmlns:sodipodi="http://sodipodi.sourceforge.net/DTD/sodipodi-0.dtd"
   xmlns:xlink="http://www.w3.org/1999/xlink"
   xmlns="http://www.w3.org/2000/svg"
   xmlns:svg="http://www.w3.org/2000/svg"><sodipodi:namedview
     id="namedview384"
     pagecolor="#505050"
     bordercolor="#ffffff"
     borderopacity="1"
     inkscape:showpageshadow="0"
     inkscape:pageopacity="0"
     inkscape:pagecheckerboard="1"
     inkscape:deskcolor="#d1d1d1"
     inkscape:document-units="mm"
     showgrid="false"
     inkscape:zoom="1.2012051"
     inkscape:cx="22.061179"
     inkscape:cy="74.092261"
     inkscape:window-width="1854"
     inkscape:window-height="1011"
     inkscape:window-x="66"
     inkscape:window-y="32"
     inkscape:window-maximized="1"
     inkscape:current-layer="layer1" /><defs
     id="defs379"><inkscape:path-effect
       effect="fillet_chamfer"
       id="path-effect1223"
       is_visible="true"
       lpeversion="1"
       nodesatellites_param="F,1,0,1,0,0.25,0,1 @ F,1,0,1,0,0.25,0,1 @ F,1,0,1,0,0.25,0,1 @ F,1,0,1,0,0.25,0,1"
       unit="px"
       method="auto"
       mode="F"
       radius="25"
       chamfer_steps="1"
       flexible="true"
       use_knot_distance="true"
       apply_no_radius="true"
       apply_with_radius="true"
       only_selected="false"
       hide_knots="false" /><linearGradient
       inkscape:collect="always"
       id="linearGradient1170"><stop
         style="stop-color:#1e8e4a;stop-opacity:1;"
         offset="0"
         id="stop1166" /><stop
         style="stop-color:#36d653;stop-opacity:1;"
         offset="0.5"
         id="stop1221" /><stop
         style="stop-color:#8dff51;stop-opacity:1;"
         offset="1"
         id="stop1168" /></linearGradient><inkscape:path-effect
       effect="mirror_symmetry"
       start_point="103.30064,179.88657"
       end_point="103.30064,186.71013"
       center_point="103.30064,183.29835"
       id="path-effect36164"
       is_visible="true"
       lpeversion="1.2"
       lpesatellites=""
       mode="free"
       discard_orig_path="false"
       fuse_paths="false"
       oposite_fuse="false"
       split_items="false"
       split_open="false"
       link_styles="false" /><inkscape:path-effect
       effect="mirror_symmetry"
       start_point="103.30064,182.96889"
       end_point="103.30064,183.62781"
       center_point="103.30064,183.29835"
       id="path-effect30187"
       is_visible="true"
       lpeversion="1.2"
       lpesatellites=""
       mode="free"
       discard_orig_path="false"
       fuse_paths="false"
       oposite_fuse="false"
       split_items="false"
       split_open="false"
       link_styles="false" /><inkscape:path-effect
       effect="mirror_symmetry"
       start_point="103.30064,183.05282"
       end_point="103.30064,183.54388"
       center_point="103.30064,183.29835"
       id="path-effect31745"
       is_visible="true"
       lpeversion="1.2"
       lpesatellites=""
       mode="free"
       discard_orig_path="false"
       fuse_paths="false"
       oposite_fuse="false"
       split_items="false"
       split_open="false"
       link_styles="false" /><linearGradient
       inkscape:collect="always"
       xlink:href="#linearGradient1170"
       id="linearGradient1172"
       x1="53.442673"
       y1="138.02362"
       x2="53.442673"
       y2="70.290298"
       gradientUnits="userSpaceOnUse" /></defs><g
     inkscape:label="Camada 1"
     inkscape:groupmode="layer"
     id="layer1"
     transform="translate(-19.576006,-70.290298)"><rect
       style="fill:url(#linearGradient1172);stroke-width:0.25;stroke-linecap:round;stroke-linejoin:round;stroke-dashoffset:4.65953;paint-order:markers fill stroke;stroke:none;fill-opacity:1"
       id="rect314"
       width="67.73333"
       height="67.73333"
       x="19.576006"
       y="70.290298"
       inkscape:path-effect="#path-effect1223"
       d="M 36.509338,70.290298 H 70.376003 A 16.933332,16.933332 45 0 1 87.309336,87.223631 V 121.0903 A 16.933332,16.933332 135 0 1 70.376003,138.02363 H 36.509338 A 16.933332,16.933332 45 0 1 19.576006,121.0903 V 87.223631 A 16.933332,16.933332 135 0 1 36.509338,70.290298 Z" /><g
       id="g1377"
       inkscape:export-filename="../../../favicon2.png"
       inkscape:export-xdpi="384.00003"
       inkscape:export-ydpi="384.00003"><ellipse
         style="fill:#00ba53;stroke-width:0.25;stroke-linecap:round;stroke-linejoin:round;stroke-dashoffset:4.65953;paint-order:markers fill stroke;opacity:0.05"
         id="path803"
         cx="53.442669"
         cy="104.15696"
         rx="33.866665"
         ry="33.866661" /><g
         id="g655"
         transform="matrix(3.8130801,0,0,3.8130801,-155.63144,-179.9694)"><g
           id="g36162"
           inkscape:path-effect="#path-effect36164"
           class="UnoptimicedTransforms"
           transform="translate(-48.469871,-107.0164)"><path
             id="path31877"
             style="opacity:1;fill:#ac7038;fill-opacity:1;stroke-width:0.3;stroke-linecap:round;stroke-linejoin:round;paint-order:markers fill stroke"
             d="m 102.26454,179.47083 c 0,1.53805 -1.11929,2.78652 -2.499998,2.78652 -1.380712,0 -2.5,-0.3752 -2.5,-2.25735 0,-1.88215 0.337652,-3.95279 1.285458,-4.5 0.947806,-0.54722 3.71454,2.43278 3.71454,3.97083 z m 2.0722,0 c 0,1.53805 1.11929,2.78652 2.5,2.78652 1.38071,0 2.5,-0.3752 2.5,-2.25735 0,-1.88215 -0.33765,-3.95279 -1.28546,-4.5 -0.94781,-0.54722 -3.71454,2.43278 -3.71454,3.97083 z"
             sodipodi:nodetypes="zszzz"
             inkscape:original-d="m 102.26454,179.47083 c 0,1.53805 -1.11929,2.78652 -2.499998,2.78652 -1.380712,0 -2.5,-0.3752 -2.5,-2.25735 0,-1.88215 0.337652,-3.95279 1.285458,-4.5 0.947806,-0.54722 3.71454,2.43278 3.71454,3.97083 z" /><path
             id="path34502"
             style="opacity:1;fill:#fbbb81;fill-opacity:1;stroke-width:0.3;stroke-linecap:round;stroke-linejoin:round;paint-order:markers fill stroke"
             d="m 101.15481,179.71249 c 0,0.90227 -0.56184,1.48298 -1.390269,1.48298 -0.828429,0 -1.614976,-0.29507 -1.614976,-1.48298 0,-1.18791 0.260536,-3.26434 1.039177,-2.98835 0.778641,0.27599 1.966068,2.08608 1.966068,2.98835 z m 4.29166,0 c 0,0.90227 0.56184,1.48298 1.39027,1.48298 0.82843,0 1.61498,-0.29507 1.61498,-1.48298 0,-1.18791 -0.26054,-3.26434 -1.03918,-2.98835 -0.77864,0.27599 -1.96607,2.08608 -1.96607,2.98835 z"
             sodipodi:nodetypes="zszzz"
             inkscape:original-d="m 101.15481,179.71249 c 0,0.90227 -0.56184,1.48298 -1.390269,1.48298 -0.828429,0 -1.614976,-0.29507 -1.614976,-1.48298 0,-1.18791 0.260536,-3.26434 1.039177,-2.98835 0.778641,0.27599 1.966068,2.08608 1.966068,2.98835 z" /></g><g
           id="g49220"
           transform="translate(-79.785796,-33.667544)"><g
             id="g49214"><path
               id="path6932"
               style="fill:#f7af67;fill-opacity:1;stroke-width:1;stroke-linecap:round;stroke-linejoin:round;stroke-dasharray:none;paint-order:markers fill stroke"
               d="m 134.61682,103.95784 c -4.36384,0 -7.27629,4.37383 -7.27629,7.22328 0,1.70968 3.25788,3.09547 7.27629,3.09547 4.01842,0 7.27579,-1.38579 7.27579,-3.09547 0,-2.84945 -2.91194,-7.22328 -7.27579,-7.22328 z" /><path
               style="fill:#aa7039;fill-opacity:1;stroke:none;stroke-width:0.01;stroke-linecap:round;stroke-linejoin:round;stroke-dasharray:none;paint-order:markers fill stroke"
               d="m 96.431246,185.55286 c 0,0 0.451938,-1.93451 1.79166,-3.27423 1.339721,-1.33972 3.284854,-1.22462 3.663214,0.18745 0.37836,1.41206 -0.87596,1.85482 -1.13934,2.83777 -0.26338,0.98296 2.55412,2.3216 2.55412,2.3216 0,0 -1.91464,0.0452 -4.14834,-0.552 -2.233703,-0.59719 -2.721314,-1.52059 -2.721314,-1.52059 z m 13.738784,0 c 0,0 -0.45193,-1.93451 -1.79166,-3.27423 -1.33972,-1.33972 -3.28485,-1.22462 -3.66321,0.18745 -0.37836,1.41206 0.87596,1.85482 1.13934,2.83777 0.26338,0.98296 -2.55412,2.3216 -2.55412,2.3216 0,0 1.91464,0.0452 4.14834,-0.552 2.2337,-0.59719 2.72131,-1.52059 2.72131,-1.52059 z"
               id="path9923"
               sodipodi:nodetypes="czzzczc"
               inkscape:path-effect="#path-effect30187"
               inkscape:original-d="m 96.431246,185.55286 c 0,0 0.451938,-1.93451 1.79166,-3.27423 1.339721,-1.33972 3.284854,-1.22462 3.663214,0.18745 0.37836,1.41206 -0.87596,1.85482 -1.13934,2.83777 -0.26338,0.98296 2.55412,2.3216 2.55412,2.3216 0,0 -1.91464,0.0452 -4.14834,-0.552 -2.233703,-0.59719 -2.721314,-1.52059 -2.721314,-1.52059 z"
               class="UnoptimicedTransforms"
               transform="translate(31.315925,-73.348859)" /></g><path
             style="fill:#f7af67;fill-opacity:1;stroke:none;stroke-width:0.3;stroke-linecap:round;stroke-linejoin:round;stroke-dasharray:none;stroke-opacity:1;paint-order:markers fill stroke"
             d="m 96.431246,185.55286 c 0,0 -0.829368,-0.44496 -0.80363,-0.77869 0.02574,-0.33373 0.40739,-0.54518 0.40739,-0.54518 0,0 -1.029309,-0.43845 -0.639925,-0.84324 0.78975,-0.87348 1.435868,-1.85725 2.079009,-2.83895 z m 13.738784,0 c 0,0 0.82937,-0.44496 0.80363,-0.77869 -0.0257,-0.33373 -0.40739,-0.54518 -0.40739,-0.54518 0,0 1.02931,-0.43845 0.63993,-0.84324 -0.78975,-0.87348 -1.43587,-1.85725 -2.07901,-2.83895 z"
             id="path30267"
             sodipodi:nodetypes="czcccc"
             inkscape:path-effect="#path-effect31745"
             inkscape:original-d="m 96.431246,185.55286 c 0,0 -0.829368,-0.44496 -0.80363,-0.77869 0.02574,-0.33373 0.40739,-0.54518 0.40739,-0.54518 0,0 -1.029309,-0.43845 -0.639925,-0.84324 0.78975,-0.87348 1.435868,-1.85725 2.079009,-2.83895 z"
             class="UnoptimicedTransforms"
             transform="translate(31.315925,-73.348859)" /></g><g
           id="g30139"
           transform="translate(-48.469871,-107.0164)"><path
             id="path9138"
             style="opacity:1;fill:#fcd8a5;fill-opacity:1;stroke-width:0.01;stroke-linecap:round;stroke-linejoin:round;paint-order:markers fill stroke"
             d="m 105.94648,186.00208 c 0,1.46126 -1.36097,1.62337 -2.64558,1.62337 -1.28461,0 -2.64609,-0.16212 -2.64609,-1.62337 0,-1.46125 1.18458,-2.70373 2.64583,-2.70373 1.14838,0 2.64584,1.24247 2.64584,2.70373 z"
             sodipodi:nodetypes="zzzsz" /><g
             id="g30133"><path
               id="path18742"
               style="opacity:1;fill:#383d3f;stroke-width:1;stroke-linecap:round;stroke-linejoin:round;paint-order:markers fill stroke"
               d="m 103.95065,184.09708 c 0,0.2051 -0.29102,0.42791 -0.65001,0.42791 -0.35898,0 -0.64999,-0.22281 -0.64999,-0.42791 -1e-5,-0.2051 0.17791,-0.31482 0.64999,-0.31482 0.47208,0 0.65002,0.10972 0.65001,0.31482 z"
               sodipodi:nodetypes="ssszs" /><path
               style="opacity:1;fill:none;fill-opacity:1;stroke:#393d40;stroke-width:0.4;stroke-linecap:round;stroke-linejoin:round;stroke-dasharray:none;stroke-opacity:1;paint-order:markers fill stroke"
               d="m 102.62565,185.36077 c 0.48823,0.47391 0.9298,0.37223 1.35,0.007"
               id="path21007"
               sodipodi:nodetypes="cc" /></g></g><g
           id="g30129"
           transform="translate(-48.469871,-107.0164)"><ellipse
             style="fill:#3d3f43;fill-opacity:1;stroke:none;stroke-width:0.3;stroke-linecap:round;stroke-linejoin:round;stroke-dasharray:none;stroke-opacity:1;paint-order:markers fill stroke"
             id="path28656"
             cx="100.65481"
             cy="183.29836"
             rx="0.5"
             ry="0.69999999" /><ellipse
             style="opacity:1;fill:#3d3f43;fill-opacity:1;stroke:none;stroke-width:0.3;stroke-linecap:round;stroke-linejoin:round;stroke-dasharray:none;stroke-opacity:1;paint-order:markers fill stroke"
             id="path28656-6"
             cx="105.94648"
             cy="183.29836"
             rx="0.5"
             ry="0.69999999" /></g></g></g></g></svg>
