<?xml version="1.0" encoding="UTF-8" standalone="no"?>
<!-- Created with Inkscape (http://www.inkscape.org/) -->

<svg
   width="541.86664mm"
   height="812.80005mm"
   viewBox="0 0 541.86664 812.80005"
   version="1.1"
   id="svg5"
   xml:space="preserve"
   inkscape:version="1.2.2 (b0a8486541, 2022-12-01)"
   sodipodi:docname="tiles_2.svg"
   inkscape:export-filename="../../../../Projects/learning/res/grass_tile.png"
   inkscape:export-xdpi="96"
   inkscape:export-ydpi="96"
   xmlns:inkscape="http://www.inkscape.org/namespaces/inkscape"
   xmlns:sodipodi="http://sodipodi.sourceforge.net/DTD/sodipodi-0.dtd"
   xmlns="http://www.w3.org/2000/svg"
   xmlns:svg="http://www.w3.org/2000/svg"><sodipodi:namedview
     id="namedview7"
     pagecolor="#505050"
     bordercolor="#ffffff"
     borderopacity="1"
     inkscape:showpageshadow="0"
     inkscape:pageopacity="0"
     inkscape:pagecheckerboard="1"
     inkscape:deskcolor="#d1d1d1"
     inkscape:document-units="mm"
     showgrid="false"
     inkscape:zoom="0.2336637"
     inkscape:cx="1994.3192"
     inkscape:cy="1848.8109"
     inkscape:window-width="1854"
     inkscape:window-height="1011"
     inkscape:window-x="66"
     inkscape:window-y="32"
     inkscape:window-maximized="1"
     inkscape:current-layer="layer1" /><defs
     id="defs2" /><g
     inkscape:label="Camada 1"
     inkscape:groupmode="layer"
     id="layer1"
     transform="translate(-2.2333007)"><g
       id="g5451"><rect
         style="fill:#9ad751;fill-opacity:1;stroke-width:1;stroke-linecap:round;stroke-linejoin:round;paint-order:markers fill stroke"
         id="rect354"
         width="270.93332"
         height="270.93335"
         x="2.2333007"
         y="0" /><rect
         style="fill:#b9763d;fill-opacity:1;stroke-width:1;stroke-linecap:round;stroke-linejoin:round;paint-order:markers fill stroke"
         id="rect1391"
         width="270.93332"
         height="270.93335"
         x="2.2333007"
         y="270.93335" /><rect
         style="fill:#a6672f;fill-opacity:1;stroke-width:1;stroke-linecap:round;stroke-linejoin:round;paint-order:markers fill stroke"
         id="rect1391-3"
         width="270.93332"
         height="270.93335"
         x="2.2333007"
         y="541.8667" /><path
         id="path1888"
         style="fill:#80b741;fill-opacity:1;stroke-width:1;stroke-linecap:round;stroke-linejoin:round;paint-order:markers fill stroke"
         d="m 66.008098,80.283785 c -0.462466,-0.0082 -0.921343,0.08377 -1.36933,0.29559 -3.583897,1.694567 -1.039589,8.203865 0.44033,11.480436 1.479919,3.27657 3.971007,8.121049 7.299582,6.994919 3.328574,-1.126122 2.839986,-7.106321 1.478098,-10.64896 -1.191652,-3.099808 -4.611425,-8.06447 -7.84868,-8.121985 z m 16.672595,4.466394 c -2.76157,0.01522 -4.733809,4.448077 -4.827325,7.269841 -0.08826,2.661105 1.562993,6.72395 4.269299,6.79545 2.21545,0.05851 3.465204,-3.214618 3.793237,-5.370214 0.456447,-2.999343 0.224889,-8.198483 -2.822202,-8.664588 -0.139507,-0.02134 -0.277193,-0.03124 -0.413009,-0.03049 z" /><path
         id="path1888-7"
         style="fill:#80b741;fill-opacity:1;stroke-width:1;stroke-linecap:round;stroke-linejoin:round;paint-order:markers fill stroke"
         d="m 182.75291,125.99831 c -0.46247,-0.008 -0.92135,0.0838 -1.36934,0.29559 -3.58389,1.69457 -1.03958,8.20387 0.44034,11.48044 1.47991,3.27657 3.971,8.12105 7.29958,6.99492 3.32857,-1.12613 2.83998,-7.10633 1.4781,-10.64896 -1.19166,-3.09981 -4.61143,-8.06447 -7.84868,-8.12199 z m 16.67259,4.46639 c -2.76157,0.0152 -4.73381,4.44808 -4.82732,7.26985 -0.0883,2.6611 1.56299,6.72395 4.26929,6.79545 2.21545,0.0585 3.46521,-3.21462 3.79324,-5.37022 0.45645,-2.99934 0.22489,-8.19848 -2.8222,-8.66459 -0.13951,-0.0213 -0.27719,-0.0312 -0.41301,-0.0305 z" /><rect
         style="fill:#7eb641;fill-opacity:1;stroke:none;stroke-width:0.999997;stroke-linecap:round;stroke-linejoin:round;paint-order:markers fill stroke"
         id="rect3009"
         width="270.93332"
         height="67.733337"
         x="2.2333007"
         y="270.93335" /><path
         style="fill:#9ad751;fill-opacity:1;stroke:none;stroke-width:1;stroke-linecap:round;stroke-linejoin:round;paint-order:markers fill stroke"
         d="m 2.2333007,270.93336 270.9333293,-6e-5 v 33.86672 c 0,0 -20.19733,-12.13669 -31.50889,-12.72102 -20.56735,-1.06246 -38.83831,18.71765 -59.36975,17.10371 -18.82566,-1.47985 -32.52353,-22.16349 -51.31814,-23.99596 C 111.6528,283.30334 93.844585,300.0476 74.45459,299.19693 60.085467,298.56654 47.9336,283.55425 33.643602,285.18675 21.379737,286.58778 2.2333007,304.80002 2.2333007,304.80002"
         id="path4156"
         sodipodi:nodetypes="cccaaaaac" /><path
         style="fill:#a6672f;fill-opacity:1;stroke:none;stroke-width:1;stroke-linecap:round;stroke-linejoin:round;paint-order:markers fill stroke"
         d="m 2.2333007,347.13339 270.9333293,-6e-5 v 33.86672 c 0,0 -20.19733,-12.13669 -31.50889,-12.72102 -20.56735,-1.06246 -38.83831,18.71765 -59.36975,17.10371 -18.82566,-1.47985 -32.52353,-22.16349 -51.31814,-23.99596 -19.31705,-1.88341 -56.51526,14.01018 -56.51526,14.01018 0,0 -26.52099,-15.64268 -40.810988,-14.01018 -12.263865,1.40103 -31.4103013,19.61327 -31.4103013,19.61327"
         id="path4254"
         sodipodi:nodetypes="cccaaacac" /><path
         style="fill:#7eb641;fill-opacity:1;stroke:none;stroke-width:1;stroke-linecap:round;stroke-linejoin:round;paint-order:markers fill stroke"
         d="m 2.2333007,338.66669 270.9333293,-6e-5 v 33.86672 c 0,0 -20.19733,-12.13669 -31.50889,-12.72102 -20.56735,-1.06246 -38.83831,18.71765 -59.36975,17.10371 -18.82566,-1.47985 -32.52353,-22.16349 -51.31814,-23.99596 -19.31705,-1.88341 -56.51526,14.01018 -56.51526,14.01018 0,0 -26.52099,-15.64268 -40.810988,-14.01018 -12.263865,1.40103 -31.4103013,19.61327 -31.4103013,19.61327"
         id="path4156-5"
         sodipodi:nodetypes="cccaaacac" /></g><rect
       style="fill:#51aad7;fill-opacity:1;stroke-width:1;stroke-linecap:round;stroke-linejoin:round;paint-order:markers fill stroke"
       id="rect354-6"
       width="270.93332"
       height="270.93335"
       x="273.16663"
       y="0" /><rect
       style="fill:#3d90b9;fill-opacity:1;stroke-width:1;stroke-linecap:round;stroke-linejoin:round;paint-order:markers fill stroke"
       id="rect1391-2"
       width="270.93332"
       height="270.93335"
       x="273.16663"
       y="270.93335" /><rect
       style="fill:#2f7ea6;fill-opacity:1;stroke-width:1;stroke-linecap:round;stroke-linejoin:round;paint-order:markers fill stroke"
       id="rect1391-3-9"
       width="270.93332"
       height="270.93335"
       x="273.16663"
       y="541.8667" /><path
       id="path1888-1"
       style="fill:#4190b7;fill-opacity:1;stroke-width:1;stroke-linecap:round;stroke-linejoin:round;paint-order:markers fill stroke"
       d="m 336.94143,80.283785 c -0.46247,-0.0082 -0.92135,0.08377 -1.36933,0.29559 -3.5839,1.694567 -1.03959,8.203865 0.44033,11.480436 1.47992,3.27657 3.971,8.121049 7.29958,6.994919 3.32857,-1.126122 2.83999,-7.106321 1.4781,-10.64896 -1.19165,-3.099808 -4.61143,-8.06447 -7.84868,-8.121985 z m 16.67259,4.466394 c -2.76157,0.01522 -4.73381,4.448077 -4.82732,7.269841 -0.0883,2.661105 1.56299,6.72395 4.2693,6.79545 2.21545,0.05851 3.4652,-3.214618 3.79323,-5.370214 0.45645,-2.999343 0.22489,-8.198483 -2.8222,-8.664588 -0.1395,-0.02134 -0.27719,-0.03124 -0.41301,-0.03049 z" /><path
       id="path1888-7-2"
       style="fill:#4190b7;fill-opacity:1;stroke-width:1;stroke-linecap:round;stroke-linejoin:round;paint-order:markers fill stroke"
       d="m 453.68624,125.99831 c -0.46247,-0.008 -0.92135,0.0838 -1.36934,0.29559 -3.58389,1.69457 -1.03958,8.20387 0.44034,11.48044 1.47991,3.27657 3.971,8.12105 7.29958,6.99492 3.32857,-1.12613 2.83998,-7.10633 1.4781,-10.64896 -1.19166,-3.09981 -4.61143,-8.06447 -7.84868,-8.12199 z m 16.67259,4.46639 c -2.76157,0.0152 -4.73381,4.44808 -4.82732,7.26985 -0.0883,2.6611 1.56299,6.72395 4.26929,6.79545 2.21545,0.0585 3.46521,-3.21462 3.79324,-5.37022 0.45645,-2.99934 0.22489,-8.19848 -2.8222,-8.66459 -0.13951,-0.0213 -0.27719,-0.0312 -0.41301,-0.0305 z" /><g
       id="g6179"><rect
         style="fill:#418fb6;fill-opacity:1;stroke:none;stroke-width:0.999997;stroke-linecap:round;stroke-linejoin:round;paint-order:markers fill stroke"
         id="rect3009-7"
         width="270.93332"
         height="67.733337"
         x="273.16663"
         y="270.93335" /><path
         style="fill:#51aad7;fill-opacity:1;stroke:none;stroke-width:1;stroke-linecap:round;stroke-linejoin:round;paint-order:markers fill stroke"
         d="m 273.16663,270.93336 270.93333,-6e-5 v 33.86672 c 0,0 -20.19733,-12.13669 -31.50889,-12.72102 -20.56735,-1.06246 -38.83831,18.71765 -59.36975,17.10371 -18.82566,-1.47985 -32.52353,-22.16349 -51.31814,-23.99596 -19.31705,-1.88341 -37.12527,14.86085 -56.51526,14.01018 -14.36912,-0.63039 -26.52099,-15.64268 -40.81099,-14.01018 -12.26386,1.40103 -31.4103,19.61327 -31.4103,19.61327"
         id="path4156-0"
         sodipodi:nodetypes="cccaaaaac" /><path
         style="fill:#2f7ea6;fill-opacity:1;stroke:none;stroke-width:1;stroke-linecap:round;stroke-linejoin:round;paint-order:markers fill stroke"
         d="m 273.16663,347.13339 270.93333,-6e-5 v 33.86672 c 0,0 -20.19733,-12.13669 -31.50889,-12.72102 -20.56735,-1.06246 -38.83831,18.71765 -59.36975,17.10371 -18.82566,-1.47985 -32.52353,-22.16349 -51.31814,-23.99596 -19.31705,-1.88341 -56.51526,14.01018 -56.51526,14.01018 0,0 -26.52099,-15.64268 -40.81099,-14.01018 -12.26386,1.40103 -31.4103,19.61327 -31.4103,19.61327"
         id="path4254-9"
         sodipodi:nodetypes="cccaaacac" /><path
         style="fill:#418fb6;fill-opacity:1;stroke:none;stroke-width:1;stroke-linecap:round;stroke-linejoin:round;paint-order:markers fill stroke"
         d="m 273.16663,338.66669 270.93333,-6e-5 v 33.86672 c 0,0 -20.19733,-12.13669 -31.50889,-12.72102 -20.56735,-1.06246 -38.83831,18.71765 -59.36975,17.10371 -18.82566,-1.47985 -32.52353,-22.16349 -51.31814,-23.99596 -19.31705,-1.88341 -56.51526,14.01018 -56.51526,14.01018 0,0 -26.52099,-15.64268 -40.81099,-14.01018 -12.26386,1.40103 -31.4103,19.61327 -31.4103,19.61327"
         id="path4156-5-3"
         sodipodi:nodetypes="cccaaacac" /></g></g></svg>
